<?xml version="1.0" standalone="no"?>
<!DOCTYPE svg PUBLIC "-//W3C//DTD SVG 20010904//EN"
 "http://www.w3.org/TR/2001/REC-SVG-20010904/DTD/svg10.dtd">
<svg version="1.0" xmlns="http://www.w3.org/2000/svg"
 width="626.000000pt" height="626.000000pt" viewBox="0 0 626.000000 626.000000"
 preserveAspectRatio="xMidYMid meet">

<g transform="translate(0.000000,626.000000) scale(0.100000,-0.100000)"
fill="#000000" stroke="none">
<path d="M3860 4584 c-8 -3 -28 -29 -44 -60 -35 -67 -77 -104 -118 -104 -17 0
-81 22 -142 49 -215 95 -321 116 -548 109 -185 -6 -299 -33 -455 -108 -358
-170 -589 -477 -680 -900 -26 -121 -26 -439 0 -560 87 -404 345 -731 680 -860
159 -62 233 -74 447 -75 156 0 211 4 275 19 44 10 83 20 87 22 4 3 -7 27 -25
54 l-32 50 -160 4 c-189 4 -270 22 -415 93 -83 41 -108 60 -195 147 -112 113
-161 194 -214 351 -52 156 -65 256 -65 485 0 311 36 501 133 705 87 181 198
299 356 375 119 58 195 74 360 73 162 -1 229 -15 350 -73 185 -89 300 -228
405 -488 39 -97 50 -118 70 -120 l23 -4 -7 104 c-4 56 -13 211 -21 343 -25
396 -22 380 -65 369z"/>
<path d="M2430 3841 c-16 -32 -11 -44 33 -76 83 -60 87 -92 87 -698 l0 -488
43 -42 c23 -24 64 -57 90 -75 44 -31 159 -92 171 -92 3 0 6 74 6 165 l0 165
108 0 c129 0 100 22 270 -215 66 -93 226 -314 354 -490 l233 -320 293 -3 292
-2 0 28 c0 28 -2 29 -82 45 -192 38 -292 120 -509 417 -295 405 -411 572 -403
579 5 4 29 13 54 20 300 81 470 277 470 541 0 149 -44 254 -155 366 -51 51
-91 81 -145 107 -158 77 -247 87 -777 87 -407 0 -423 -1 -433 -19z m840 -121
c37 -11 90 -37 123 -60 232 -167 241 -552 16 -730 -115 -91 -206 -120 -401
-127 l-148 -6 0 461 0 460 43 8 c72 12 210 21 257 17 25 -2 74 -13 110 -23z"/>
<path d="M3976 2911 c-12 -5 -30 -39 -51 -99 -39 -108 -101 -226 -157 -299
-22 -29 -38 -56 -36 -60 1 -5 41 -64 87 -131 66 -95 90 -122 107 -122 13 0 25
4 28 8 18 30 62 714 45 711 -2 0 -12 -4 -23 -8z"/>
<path d="M2546 1962 c-9 -93 -29 -143 -72 -181 -42 -37 -90 -51 -176 -51 l-68
0 0 -30 0 -30 470 0 470 0 0 29 0 28 -88 5 c-97 6 -136 21 -175 67 -23 28 -47
104 -47 151 0 11 -4 20 -8 20 -4 0 -74 15 -154 33 l-146 33 -6 -74z"/>
</g>
</svg>
